<svg id="Layer_1" data-name="Layer 1" xmlns="http://www.w3.org/2000/svg" viewBox="0 0 2477.58 4246.42"><defs><style>.cls-1{fill:#d5b151;}.cls-2{fill:#9e1f63;}.cls-3{fill:#bb886d;}.cls-4{fill:#fab38e;}.cls-5{fill:#231f20;}.cls-6{fill:#fff;}.cls-7{fill:#f15a29;}.cls-8{fill:#ab7c63;}.cls-9{fill:#dea080;}.cls-10{fill:#1d0000;}.cls-11{fill:#603913;}</style></defs><title>site-people3</title><path class="cls-1" d="M569.77,211.27s-271.94-236-404.7,31.4-46.45,1162.66-46.45,1162.66h1026s148-973,0-1194.06S676.16-20.66,569.77,211.27Z" transform="translate(-56.22 -38.47)"/><path class="cls-2" d="M286,1297.22h595a98.22,98.22,0,0,1,98.22,98.22v992.8a12.61,12.61,0,0,1-12.61,12.61H202.1a12.61,12.61,0,0,1-12.61-12.61V1393.68A96.46,96.46,0,0,1,286,1297.22Z"/><ellipse class="cls-3" cx="584.32" cy="1277.18" rx="118.92" ry="149.14"/><ellipse class="cls-4" cx="584.32" cy="754.36" rx="444.86" ry="557.9"/><polygon class="cls-5" points="979.14 4098.11 621.05 4098.11 584.32 3234.92 539.54 4098.11 189.5 4098.11 189.5 2371.73 979.14 2371.73 979.14 4098.11"/><path class="cls-2" d="M83.59,4069.42H557.86a4.06,4.06,0,0,1,4.06,4.06v168.88a4.06,4.06,0,0,1-4.06,4.06H58.53a4.06,4.06,0,0,1-4.06-4.06V4098.54a29.12,29.12,0,0,1,29.12-29.12Z"/><path class="cls-2" d="M610.77,4069.42h473a30.36,30.36,0,0,1,30.36,30.36v142.58a4.06,4.06,0,0,1-4.06,4.06H610.77a4.06,4.06,0,0,1-4.06-4.06V4073.48A4.06,4.06,0,0,1,610.77,4069.42Z"/><path class="cls-2" d="M474.57,1539.34,335.11,1913.43,114.17,1768.25l134-359.46c3-8.08,11.29-10.79,18.49-6.06Z" transform="translate(-56.22 -38.47)"/><polygon class="cls-4" points="5.11 2022.54 181.8 2036.65 249.43 1855.23 87.63 1748.91 5.11 2022.54"/><path class="cls-4" d="M58.94,2103.09l30.43,77.76c16.11,37.27,82,41.34,147.13,9.08l388.18-257.26-61.56-142.45L95.06,2022C61.24,2038.71,50.57,2083.74,58.94,2103.09Z" transform="translate(-56.22 -38.47)"/><rect class="cls-6" x="567.54" y="1534.94" width="168.88" height="364.36" rx="2.17" transform="translate(-557.98 249.51) rotate(-18.12)"/><ellipse class="cls-4" cx="660.72" cy="1812.24" rx="125.59" ry="91.14" transform="translate(-1300.35 2077.6) rotate(-79.03)"/><ellipse class="cls-4" cx="560.05" cy="1760.37" rx="16.39" ry="47.59" transform="translate(-576 223.06) rotate(-18.12)"/><ellipse class="cls-4" cx="139.45" cy="758.49" rx="68.88" ry="86.39"/><ellipse class="cls-4" cx="1029.18" cy="758.49" rx="68.88" ry="86.39"/><path class="cls-4" d="M1078.57,2249.05l78.73-148.28c19.29-36.35,24-80.22,12.58-117.87l-65.38-216-163,90.29Z" transform="translate(-56.22 -38.47)"/><path class="cls-2" d="M1029.64,1400.91l112.42,377.92-222.91,121.9-118.1-397,206.72-113C1016.71,1385.77,1026.51,1390.36,1029.64,1400.91Z" transform="translate(-56.22 -38.47)"/><ellipse class="cls-4" cx="948.34" cy="2510.96" rx="125.59" ry="91.14" transform="translate(-1613.98 1511.37) rotate(-48.33)"/><ellipse class="cls-4" cx="923.34" cy="2401.41" rx="38.78" ry="20.11" transform="matrix(0.99, -0.15, 0.15, 0.99, -405.55, 126.95)"/><path class="cls-4" d="M1048.84,2459.87l-113-25.21,54.69-437.27,167.54,37.4a17.84,17.84,0,0,1,13.19,22.62Z" transform="translate(-56.22 -38.47)"/><path class="cls-7" d="M1603.28,1206.26h595.18a98.11,98.11,0,0,1,98.11,98.11V2309.89a0,0,0,0,1,0,0h-777a12.61,12.61,0,0,1-12.61-12.61V1302.61A96.35,96.35,0,0,1,1603.28,1206.26Z"/><ellipse class="cls-8" cx="1901.75" cy="1186.23" rx="118.92" ry="149.14"/><ellipse class="cls-9" cx="1901.75" cy="663.41" rx="444.86" ry="557.9"/><polygon class="cls-5" points="2296.55 4097.87 1938.46 4097.87 1901.72 3203.88 1856.95 4097.87 1506.9 4097.87 1506.9 2309.89 2296.55 2309.89 2296.55 4097.87"/><path class="cls-7" d="M1401,4069.18h474.28a4.06,4.06,0,0,1,4.06,4.06v168.88a4.06,4.06,0,0,1-4.06,4.06H1375.94a4.06,4.06,0,0,1-4.06-4.06V4098.3A29.12,29.12,0,0,1,1401,4069.18Z"/><path class="cls-7" d="M1928.18,4069.18h473a30.36,30.36,0,0,1,30.36,30.36v142.58a4.06,4.06,0,0,1-4.06,4.06H1928.18a4.06,4.06,0,0,1-4.06-4.06V4073.24a4.06,4.06,0,0,1,4.06-4.06Z"/><path class="cls-7" d="M2115.45,1428.19l139.47,374.1,220.93-145.18-134-359.47c-3-8.08-11.29-10.79-18.5-6.05Z" transform="translate(-56.22 -38.47)"/><polygon class="cls-9" points="2472.47 1911.4 2295.78 1925.5 2228.15 1744.09 2389.95 1637.76 2472.47 1911.4"/><path class="cls-9" d="M2531.09,1992l-30.44,77.75c-16.11,37.28-82,41.34-147.13,9.09l-388.17-257.26,61.56-142.46L2495,1910.82C2528.79,1927.57,2539.45,1972.6,2531.09,1992Z" transform="translate(-56.22 -38.47)"/><rect class="cls-6" x="1853.6" y="1423.79" width="168.88" height="364.36" rx="2.17" transform="translate(3224.19 3696.63) rotate(-161.88)"/><ellipse class="cls-9" cx="1929.31" cy="1701.1" rx="91.14" ry="125.59" transform="translate(-344.65 359.7) rotate(-10.97)"/><ellipse class="cls-9" cx="2029.98" cy="1649.22" rx="47.59" ry="16.39" transform="translate(-225.08 3027.05) rotate(-71.88)"/><ellipse class="cls-9" cx="1456.89" cy="667.54" rx="68.88" ry="86.39"/><ellipse class="cls-9" cx="2346.61" cy="667.54" rx="68.88" ry="86.39"/><path class="cls-9" d="M1514.45,2159.32,1435.73,2011c-19.29-36.35-24-80.22-12.58-117.87l65.37-216,163,90.3Z" transform="translate(-56.22 -38.47)"/><path class="cls-7" d="M1563.38,1322.88,1451,1700.8l222.92,121.9,118.1-397-206.72-113C1576.31,1307.75,1566.52,1312.33,1563.38,1322.88Z" transform="translate(-56.22 -38.47)"/><ellipse class="cls-9" cx="1644.69" cy="2421.24" rx="91.14" ry="125.59" transform="translate(-1249.86 1667.74) rotate(-41.67)"/><ellipse class="cls-9" cx="1669.69" cy="2311.69" rx="20.11" ry="38.78" transform="matrix(0.15, -0.99, 0.99, 0.15, -922.27, 3577.76)"/><path class="cls-9" d="M1544.19,2370.14l113-25.21-54.7-437.26-172.16,38.43a13.45,13.45,0,0,0-10,17.05Z" transform="translate(-56.22 -38.47)"/><path class="cls-10" d="M1517.25,553.57l10-199.19a12.21,12.21,0,0,0-.06-2c-2.46-19.08-34.33-350.52,718.8-310.56a230.69,230.69,0,0,1,96.65,26.92c65.46,34.84,153.87,106.38,60.77,211.2-74,83.29-145.38,98-195.23,94.07-30.85-2.45-60.43-15.57-87.6-34.87-43.43-30.84-156.69-91.83-284.51-4.88-157.56,107.19-197.9,58.29-307.2,225.66C1524.57,566.47,1516.82,562.25,1517.25,553.57Z" transform="translate(-56.22 -38.47)"/><path class="cls-11" d="M1513.11,563.11" transform="translate(-56.22 -38.47)"/></svg>