<svg id="Layer_1" data-name="Layer 1" xmlns="http://www.w3.org/2000/svg" viewBox="0 0 2440.98 4236.2"><defs><style>.cls-1{fill:#603913;}.cls-2{fill:#ffde17;}.cls-3{fill:#6f5030;}.cls-4{fill:#ac7f50;}.cls-5{fill:#231f20;}.cls-6{fill:#be1e2d;}.cls-7{fill:#3b2508;}.cls-8{fill:#5a4022;}.cls-9{fill:#fff;}.cls-10{fill:#3a1c00;}</style></defs><title>site-people1</title><path class="cls-1" d="M556.06,216.76S273.74-17.87,135.91,248,87.69,1404.14,87.69,1404.14H1152.84s153.67-967.51,0-1187.38S666.51-13.87,556.06,216.76Z" transform="translate(-59.05 -47.8)"/><path class="cls-2" d="M286.59,1299.77H873.74a99.92,99.92,0,0,1,99.92,99.92v984.92A12.61,12.61,0,0,1,961,2397.22H201a12.61,12.61,0,0,1-12.61-12.61V1397.94A98.16,98.16,0,0,1,286.59,1299.77Z"/><ellipse class="cls-3" cx="581.04" cy="1279.86" rx="118.26" ry="148.3"/><ellipse class="cls-4" cx="581.04" cy="759.96" rx="442.37" ry="554.78"/><polygon class="cls-5" points="973.65 4084.98 617.57 4084.98 581.04 3226.62 536.51 4084.98 188.43 4084.98 188.43 2368.27 973.65 2368.27 973.65 4084.98"/><path class="cls-2" d="M83.28,4056.45H554.72a4.06,4.06,0,0,1,4.06,4.06v167.88a4.06,4.06,0,0,1-4.06,4.06H58.23a4.06,4.06,0,0,1-4.06-4.06V4085.56a29.12,29.12,0,0,1,29.12-29.12Z"/><path class="cls-2" d="M607.37,4056.45h470.2a30.36,30.36,0,0,1,30.36,30.36v141.59a4.06,4.06,0,0,1-4.06,4.06H607.37a4.06,4.06,0,0,1-4.06-4.06V4060.51A4.06,4.06,0,0,1,607.37,4056.45Z"/><ellipse class="cls-4" cx="138.67" cy="764.07" rx="68.5" ry="85.9"/><ellipse class="cls-4" cx="1023.41" cy="764.07" rx="68.5" ry="85.9"/><path class="cls-4" d="M1075,2243.21l78.28-147.45c19.19-36.14,23.84-79.77,12.51-117.21l-65-214.77-162,89.79Z" transform="translate(-59.05 -47.8)"/><path class="cls-2" d="M1026.29,1411.45l111.79,375.8L916.42,1908.48,799,1513.69l205.56-112.42C1013.44,1396.41,1023.17,1401,1026.29,1411.45Z" transform="translate(-59.05 -47.8)"/><ellipse class="cls-4" cx="945.44" cy="2503.66" rx="124.89" ry="90.63" transform="translate(-1612.33 1497.43) rotate(-48.33)"/><ellipse class="cls-4" cx="920.59" cy="2394.72" rx="38.56" ry="20" transform="matrix(0.99, -0.15, 0.15, 0.99, -407.41, 117.13)"/><path class="cls-4" d="M1045.38,2452.85l-112.33-25.07L987.44,1993l151.13,33.73a32.45,32.45,0,0,1,24,41.12Z" transform="translate(-59.05 -47.8)"/><path class="cls-6" d="M1594.69,1188h591a98,98,0,0,1,98,98v1041.4a69.86,69.86,0,0,1-69.86,69.86H1568.32a69.86,69.86,0,0,1-69.86-69.86V1284.21A96.22,96.22,0,0,1,1594.69,1188Z"/><ellipse class="cls-7" cx="1891.07" cy="1168.07" rx="118.26" ry="148.3"/><ellipse class="cls-8" cx="1891.07" cy="648.18" rx="442.37" ry="554.78"/><polygon class="cls-5" points="2283.68 4088.72 1927.6 4088.72 1891.07 3177.78 1846.54 4088.72 1498.46 4088.72 1498.46 2266.83 2283.68 2266.83 2283.68 4088.72"/><path class="cls-6" d="M1393.31,4060.19h471.43a4.06,4.06,0,0,1,4.06,4.06v167.88a4.06,4.06,0,0,1-4.06,4.06H1368.26a4.06,4.06,0,0,1-4.06-4.06V4089.31A29.12,29.12,0,0,1,1393.31,4060.19Z"/><path class="cls-6" d="M1917.4,4060.19h470.2a30.36,30.36,0,0,1,30.36,30.36v141.59a4.06,4.06,0,0,1-4.06,4.06H1917.4a4.06,4.06,0,0,1-4.06-4.06V4064.25a4.06,4.06,0,0,1,4.06-4.06Z"/><path class="cls-6" d="M1790.66,1427l-138.68,372-219.7-144.36,133.26-357.46c3-8,11.23-10.72,18.39-6Z" transform="translate(-59.05 -47.8)"/><polygon class="cls-8" points="1320.68 1897.89 1496.38 1911.92 1563.64 1731.52 1402.74 1625.79 1320.68 1897.89"/><path class="cls-8" d="M1377.35,1987.54l30.27,77.32c16,37.07,81.52,41.11,146.3,9l386-255.81-61.21-141.66-465.44,230.45C1379.64,1923.52,1369,1968.3,1377.35,1987.54Z" transform="translate(-59.05 -47.8)"/><rect class="cls-9" x="1883.11" y="1422.57" width="167.94" height="362.32" rx="2.17" transform="translate(-460.31 643.6) rotate(-18.12)"/><ellipse class="cls-8" cx="1975.76" cy="1698.32" rx="124.89" ry="90.63" transform="translate(-126.51 3267.04) rotate(-79.03)"/><ellipse class="cls-8" cx="1875.66" cy="1646.74" rx="16.29" ry="47.32" transform="translate(-478.22 617.3) rotate(-18.12)"/><ellipse class="cls-8" cx="1448.7" cy="652.28" rx="68.5" ry="85.9"/><ellipse class="cls-8" cx="2333.44" cy="652.28" rx="68.5" ry="85.9"/><path class="cls-8" d="M2388.72,2141.74,2467,1994.28c19.19-36.14,23.85-79.76,12.51-117.2l-65-214.77-162,89.79Z" transform="translate(-59.05 -47.8)"/><path class="cls-6" d="M2340.06,1310l111.8,375.8L2230.19,1807l-117.44-394.79,205.57-112.42C2327.21,1294.93,2337,1299.49,2340.06,1310Z" transform="translate(-59.05 -47.8)"/><ellipse class="cls-8" cx="2259.21" cy="2402.18" rx="124.89" ry="90.63" transform="translate(-1096.26 2444.74) rotate(-48.33)"/><ellipse class="cls-8" cx="2234.36" cy="2293.25" rx="38.56" ry="20" transform="translate(-377.38 312.8) rotate(-8.62)"/><path class="cls-8" d="M2359.15,2351.38l-112.33-25.07,54.39-434.82,152.58,34.06a31.06,31.06,0,0,1,23,39.36Z" transform="translate(-59.05 -47.8)"/><path class="cls-10" d="M1507.77,577.33l9.57-204.5a10.9,10.9,0,0,0-.08-2.06c-2.74-19.59-38.84-359.82,769.67-319.68a257,257,0,0,1,103.88,27.53c70.45,35.69,165.74,109,66.42,216.75-78.91,85.59-155.46,100.8-209,96.8-33.13-2.47-64.95-15.91-94.22-35.69-46.79-31.62-168.68-94.1-305.37-4.67-168.48,110.22-212.06,60.06-328.41,232C1515.69,590.57,1507.35,586.24,1507.77,577.33Z" transform="translate(-59.05 -47.8)"/><path class="cls-4" d="M204.26,2243.21,126,2095.76c-19.19-36.14-23.85-79.77-12.51-117.21l65-214.77,162,89.79Z" transform="translate(-59.05 -47.8)"/><path class="cls-2" d="M252.92,1411.45l-111.8,375.8,221.67,121.23,117.44-394.79L274.66,1401.27C265.77,1396.41,256,1401,252.92,1411.45Z" transform="translate(-59.05 -47.8)"/><ellipse class="cls-4" cx="333.77" cy="2503.66" rx="90.63" ry="124.89" transform="translate(-1639.22 807.66) rotate(-41.67)"/><ellipse class="cls-4" cx="358.62" cy="2394.72" rx="20" ry="38.56" transform="translate(-2121.85 2342.75) rotate(-81.38)"/><path class="cls-4" d="M233.83,2452.85l112.33-25.07L291.77,1993l-145,32.37a38.23,38.23,0,0,0-28.24,48.44Z" transform="translate(-59.05 -47.8)"/><text x="-59.05" y="-47.8"/></svg>