<svg id="Layer_1" data-name="Layer 1" xmlns="http://www.w3.org/2000/svg" viewBox="0 0 2438.24 4245.76"><defs><style>.cls-1{fill:#b65415;}.cls-2{fill:#2e3192;}.cls-3{fill:#bb886d;}.cls-4{fill:#fab38e;}.cls-5{fill:#231f20;}.cls-6{fill:#00a651;}.cls-7{fill:#d5a690;}.cls-8{fill:#fcd0be;}.cls-9{fill:#603913;}</style></defs><title>site-people2</title><path class="cls-1" d="M565.91,209.4S282.62-26,144.31,240.73,95.93,1400.85,95.93,1400.85H1164.74s154.2-970.83,0-1191.45S676.74-22,565.91,209.4Z" transform="translate(-67.19 -39.86)"/><path class="cls-2" d="M291.07,1299.24H873.26A103.74,103.74,0,0,1,977,1403v984.86a12.61,12.61,0,0,1-12.61,12.61H201.69a12.61,12.61,0,0,1-12.61-12.61V1401.23A102,102,0,0,1,291.07,1299.24Z"/><ellipse class="cls-3" cx="583.04" cy="1279.25" rx="118.66" ry="148.81"/><ellipse class="cls-4" cx="583.04" cy="757.57" rx="443.89" ry="556.68"/><polygon class="cls-5" points="977 4094.02 619.69 4094.02 583.04 3232.71 538.36 4094.02 189.08 4094.02 189.08 2371.41 977 2371.41 977 4094.02"/><path class="cls-2" d="M83.47,4065.39H556.64a4.06,4.06,0,0,1,4.06,4.06v168.49a4.06,4.06,0,0,1-4.06,4.06H58.41a4.06,4.06,0,0,1-4.06-4.06V4094.51A29.12,29.12,0,0,1,83.47,4065.39Z"/><path class="cls-2" d="M609.44,4065.39h471.93a30.36,30.36,0,0,1,30.36,30.36v142.19a4.06,4.06,0,0,1-4.06,4.06H609.44a4.06,4.06,0,0,1-4.06-4.06V4069.45A4.06,4.06,0,0,1,609.44,4065.39Z"/><ellipse class="cls-4" cx="139.15" cy="761.69" rx="68.73" ry="86.2"/><ellipse class="cls-4" cx="1026.93" cy="761.69" rx="68.73" ry="86.2"/><path class="cls-4" d="M1089.31,2250.47l78.55-148c19.26-36.27,23.93-80.05,12.56-117.62l-65.24-215.5-162.59,90.1Z" transform="translate(-67.19 -39.86)"/><path class="cls-2" d="M1040.49,1415.84l112.17,377.1L930.24,1914.58,812.39,1518.43l206.27-112.8C1027.59,1400.75,1037.36,1405.32,1040.49,1415.84Z" transform="translate(-67.19 -39.86)"/><ellipse class="cls-4" cx="959.36" cy="2511.81" rx="125.32" ry="90.94" transform="translate(-1621.89 1518.5) rotate(-48.33)"/><ellipse class="cls-4" cx="934.42" cy="2402.5" rx="38.69" ry="20.07" transform="translate(-416.56 127.24) rotate(-8.62)"/><path class="cls-4" d="M1059.64,2460.83l-112.71-25.16,54.57-436.31,165.24,36.88a19.65,19.65,0,0,1,14.52,24.9Z" transform="translate(-67.19 -39.86)"/><path class="cls-6" d="M1599.82,1197.68h571.5a109.09,109.09,0,0,1,109.09,109.09v979.52a12.61,12.61,0,0,1-12.61,12.61h-762.7a12.61,12.61,0,0,1-12.61-12.61V1305A107.33,107.33,0,0,1,1599.82,1197.68Z"/><ellipse class="cls-7" cx="1886.45" cy="1177.69" rx="118.66" ry="148.81"/><ellipse class="cls-8" cx="1886.45" cy="656.01" rx="443.89" ry="556.68"/><polygon class="cls-5" points="2291.53 4097.77 1934.23 4097.77 1897.57 3188.75 1852.89 4097.77 1503.61 4097.77 1503.61 2279.73 2291.53 2279.73 2291.53 4097.77"/><path class="cls-6" d="M1398,4069.14h473.17a4.06,4.06,0,0,1,4.06,4.06v168.49a4.06,4.06,0,0,1-4.06,4.06H1372.95a4.06,4.06,0,0,1-4.06-4.06V4098.26A29.12,29.12,0,0,1,1398,4069.14Z"/><path class="cls-6" d="M1924,4069.14h471.93a30.36,30.36,0,0,1,30.36,30.36v142.19a4.06,4.06,0,0,1-4.06,4.06H1924a4.06,4.06,0,0,1-4.06-4.06V4073.2a4.06,4.06,0,0,1,4.06-4.06Z"/><ellipse class="cls-8" cx="1442.55" cy="660.13" rx="68.73" ry="86.2"/><ellipse class="cls-8" cx="2330.34" cy="660.13" rx="68.73" ry="86.2"/><path class="cls-8" d="M1514.09,2150.13l-78.55-148c-19.26-36.26-23.93-80-12.56-117.61l65.24-215.51,162.59,90.1Z" transform="translate(-67.19 -39.86)"/><path class="cls-6" d="M1562.91,1315.51,1450.74,1692.6l222.42,121.64L1791,1418.1l-206.27-112.81C1575.81,1300.41,1566,1305,1562.91,1315.51Z" transform="translate(-67.19 -39.86)"/><ellipse class="cls-8" cx="1644.04" cy="2411.47" rx="90.94" ry="125.32" transform="translate(-1254.51 1663.45) rotate(-41.67)"/><ellipse class="cls-8" cx="1668.98" cy="2302.16" rx="20.07" ry="38.69" transform="translate(-924.42 3567.58) rotate(-81.38)"/><path class="cls-8" d="M1543.76,2360.49l112.71-25.16L1601.9,1899l-151.49,33.82a32.71,32.71,0,0,0-24.17,41.44Z" transform="translate(-67.19 -39.86)"/><path class="cls-9" d="M1509.76,576.81l9.6-205.2a11,11,0,0,0-.07-2.07c-2.76-19.65-39-361.06,772.31-320.78a257.82,257.82,0,0,1,104.23,27.63c70.7,35.81,166.32,109.39,66.66,217.49-79.19,85.89-156,101.15-209.7,97.14-33.25-2.49-65.17-16-94.54-35.82-46.95-31.73-169.27-94.42-306.43-4.69-169.06,110.6-212.78,60.27-329.53,232.82C1517.71,590.09,1509.34,585.75,1509.76,576.81Z" transform="translate(-67.19 -39.86)"/><path class="cls-4" d="M212.46,2236.36l-78.55-148c-19.26-36.26-23.93-80-12.56-117.61l65.24-215.5,162.59,90.09Z" transform="translate(-67.19 -39.86)"/><path class="cls-2" d="M261.28,1401.74l-112.17,377.1,222.42,121.64,117.85-396.15L283.11,1391.52C274.18,1386.64,264.41,1391.22,261.28,1401.74Z" transform="translate(-67.19 -39.86)"/><ellipse class="cls-4" cx="342.41" cy="2497.7" rx="90.94" ry="125.32" transform="translate(-1641.22 819.85) rotate(-41.67)"/><ellipse class="cls-4" cx="367.35" cy="2388.39" rx="20.07" ry="38.69" transform="translate(-2116.31 2353.95) rotate(-81.38)"/><path class="cls-4" d="M242.13,2446.72l112.71-25.15-54.57-436.31-159.46,35.59a25.15,25.15,0,0,0-18.58,31.86Z" transform="translate(-67.19 -39.86)"/><path class="cls-8" d="M2391,2146.6l78.55-148c19.25-36.27,23.92-80.05,12.55-117.62l-65.23-215.5-162.6,90.09Z" transform="translate(-67.19 -39.86)"/><path class="cls-6" d="M2342.16,1312l112.18,377.1-222.43,121.64-117.84-396.15,206.27-112.8C2329.26,1296.88,2339,1301.45,2342.16,1312Z" transform="translate(-67.19 -39.86)"/><ellipse class="cls-8" cx="2261.03" cy="2407.94" rx="125.32" ry="90.94" transform="translate(-1108.08 2455.97) rotate(-48.33)"/><ellipse class="cls-8" cx="2236.09" cy="2298.63" rx="38.69" ry="20.07" transform="translate(-386.31 321.06) rotate(-8.62)"/><path class="cls-8" d="M2361.31,2357,2248.6,2331.8l54.58-436.31,158.37,35.35a26.17,26.17,0,0,1,19.34,33.16Z" transform="translate(-67.19 -39.86)"/></svg>