<svg id="Layer_1" data-name="Layer 1" xmlns="http://www.w3.org/2000/svg" viewBox="0 0 1296 1728"><defs><style>.cls-1,.cls-15,.cls-2{fill:#f7be16;}.cls-1,.cls-2{stroke:#231f20;stroke-miterlimit:10;}.cls-2{stroke-width:20px;}.cls-3,.cls-4{fill:#231f20;}.cls-4{font-size:90px;letter-spacing:0.01em;}.cls-15,.cls-4{font-family:HelveticaNeue-CondensedBlack, Helvetica Neue;font-weight:800;}.cls-5{letter-spacing:-0.02em;}.cls-6{letter-spacing:-0.01em;}.cls-7{letter-spacing:0.01em;}.cls-8{letter-spacing:-0.02em;}.cls-9{letter-spacing:0.01em;}.cls-10{letter-spacing:-0.01em;}.cls-11{letter-spacing:-0.06em;}.cls-12{letter-spacing:-0.1em;}.cls-13{letter-spacing:0em;}.cls-14{letter-spacing:-0.08em;}.cls-15{font-size:130.9px;letter-spacing:0.07em;}.cls-16{letter-spacing:0.05em;}</style></defs><title>site-sign</title><rect class="cls-1" width="1296" height="1728" rx="54.47"/><rect class="cls-2" x="44.64" y="59.52" width="1206.71" height="1608.95" rx="54.47"/><circle class="cls-3" cx="702.4" cy="548.45" r="80.32"/><path class="cls-3" d="M653.33,637.84l100,8.77,67.89,101.26,96.53,36.68c3.27,1.22,8.55,4.54,10.71,7.29,2.93,3.74,4,8.1,3.85,13.56h0C930,825.91,910,833.23,892.74,828.3L783.3,796.69l-62.9-80.47L675.6,908.1l110.55,96.47,22.79,175.11c1.19,9.23.78,23.51-4.47,31.21-4.64,6.79-12.42,13-25.44,13.57-27.62,1.18-40.94-19-42.6-46.58L716.85,1049l-94.14-68-36.62,94.14-87.43,140.89c-8.52,13.73-23.68,22.25-39.82,21.55-10.73-.47-21.69-4.66-28-17.52a36,36,0,0,1,1.72-34.2l79-133L622.08,716.06l-39.33,25.72-57.53,95.54a11.13,11.13,0,0,0-.61,1.19c-4.49,10-11.48,21.86-20.94,26.5-8,3.94-18.09,5.16-28.07-3.61-8.11-7.13-11.87-17.86-11-28.51a21.53,21.53,0,0,1,3-9.25l76.48-129.82Z"/><text class="cls-4" transform="translate(253.89 1376.65)">IT’S<tspan class="cls-5" x="141.39" y="0"> </tspan><tspan x="162.63" y="0">ANN</tspan><tspan class="cls-6" x="322.74" y="0">O</tspan><tspan x="371.43" y="0">YING</tspan><tspan class="cls-5" x="549.62" y="0"> </tspan><tspan x="570.86" y="0">WHEN </tspan><tspan x="-62.6" y="108">PEOPLE</tspan><tspan class="cls-5" x="222.79" y="108"> </tspan><tspan class="cls-7" x="244.03" y="108">ARE IN</tspan><tspan class="cls-8" x="497.83" y="108"> </tspan><tspan class="cls-9" x="519.07" y="108">THE</tspan><tspan class="cls-5" x="660.82" y="108"> </tspan><tspan class="cls-10" x="682.06" y="108">W</tspan><tspan class="cls-11" x="751" y="108">A</tspan><tspan class="cls-12" x="795.55" y="108">Y</tspan><tspan x="833.53" y="108">. </tspan><tspan x="-146.88" y="213">BE COU</tspan><tspan class="cls-13" x="128.61" y="213">R</tspan><tspan x="179.82" y="213">TEOU</tspan><tspan class="cls-5" x="371.16" y="213">S</tspan><tspan x="417.33" y="213">.</tspan><tspan class="cls-8" x="441.9" y="213"> </tspan><tspan class="cls-10" x="463.14" y="213">W</tspan><tspan x="532.08" y="213">ALK RIGH</tspan><tspan class="cls-14" x="883.35" y="213">T</tspan><tspan x="917.81" y="213">.</tspan></text><rect class="cls-3" x="127.78" y="138.5" width="1040.44" height="261.7"/><text class="cls-15" transform="translate(261.59 318.04)">#<tspan class="cls-16" x="77.23" y="0">W</tspan><tspan x="184.96" y="0">ALKRIGHT</tspan></text></svg>